<svg fill="#ffffff" height="24" viewBox="0 0 24 24" width="24" xmlns="http://www.w3.org/2000/svg">
    <g id="eye" transform="translate(0.000000, 4.000000)" fill-rule="nonzero" fill="#FFFFFF">
        <path d="M10.8408002,8.71464014 L10.2960002,7.92000013 L10.8408002,7.12536012 C10.9132802,7.01976012 11.4940802,6.1855201 12.4711202,5.08056008 C12.0540002,4.89264008 11.5900802,4.78464008 11.0992802,4.78464008 C9.55128016,4.78488008 7.84800013,6.1888801 7.84800013,7.92000013 C7.84800013,9.65160016 9.59016016,11.0551202 11.0992802,11.0551202 C11.5900802,11.0551202 12.0540002,10.9471202 12.4711202,10.7592002 C11.4940802,9.65448016 10.9132802,8.82024015 10.8408002,8.71464014 Z" id="Shape"></path>
        <path d="M15.1012802,13.3459202 C14.0978402,13.7685602 13.0533602,14.0280002 12.0000002,14.0280002 C7.66104013,14.0280002 3.75216006,9.85152016 2.17032004,7.91112013 C4.04640007,5.59848009 7.96536013,1.81200003 12.0000002,1.81200003 C13.0740002,1.81200003 14.1213602,2.06832003 15.1140002,2.48304004 C15.5932803,2.07672003 16.1049603,1.67592003 16.6473603,1.29528002 C15.2176803,0.567120009 13.6478402,0.0823200014 12.0000002,0.0823200014 C5.37264009,0.0823200014 0,7.92000013 0,7.92000013 C0,7.92000013 5.37264009,15.7576803 12.0000002,15.7576803 C13.6478402,15.7576803 15.2176803,15.2726403 16.6471203,14.5447202 C16.0999203,14.1607202 15.5841603,13.7560802 15.1012802,13.3459202 Z" id="Shape"></path>
        <path d="M18.0000003,2.08056003 C14.4144002,4.40280007 12.0000002,7.92000013 12.0000002,7.92000013 C12.0000002,7.92000013 14.4144002,11.4372002 18.0000003,13.7594402 C21.5856004,11.4372002 24.0000004,7.92000013 24.0000004,7.92000013 C24.0000004,7.92000013 21.5856004,4.40280007 18.0000003,2.08056003 Z M17.9023203,9.86592016 C16.8288003,9.86592016 15.9564003,8.99472015 15.9564003,7.92000013 C15.9564003,6.84648011 16.8290403,5.9740801 17.9023203,5.9740801 C18.9770403,5.9740801 19.8482403,6.84672011 19.8482403,7.92000013 C19.8482403,8.99496015 18.9768003,9.86592016 17.9023203,9.86592016 Z M21.0628803,9.86592016 C20.7050403,9.86592016 20.4146403,9.57576016 20.4146403,9.21672015 C20.4146403,8.85912015 20.7050403,8.56872014 21.0628803,8.56872014 C21.4209604,8.56872014 21.7118404,8.85912015 21.7118404,9.21672015 C21.7118404,9.57576016 21.4209604,9.86592016 21.0628803,9.86592016 Z" id="Shape"></path>
    </g>
</svg>